<svg width="24" height="24" viewBox="0 0 24 24" fill="none" xmlns="http://www.w3.org/2000/svg">
<path d="M20.0001 15.093L17.9183 13.7364L17.8225 13.6737C17.4268 13.4146 17.0298 13.1546 16.5802 13.0549C16.1886 12.9681 15.7819 12.9767 15.3943 13.0801C14.9493 13.1989 14.5637 13.4755 14.1795 13.7512L14.0864 13.8179L11.5807 15.6069C11.1016 15.949 11.0422 15.9764 11.0015 15.9889C10.9328 16.01 10.8605 16.016 10.7893 16.0067C10.7471 16.0011 10.684 15.984 10.1546 15.7263L9.62622 15.4692L9.54306 15.4286C9.19443 15.2581 8.84379 15.0867 8.46244 15.0287C8.12956 14.9781 7.78989 14.9952 7.46379 15.0791C7.09023 15.1752 6.75864 15.3811 6.42895 15.5858L6.3503 15.6346L4.00244 17.0863C4.00631 17.526 4.01665 17.9131 4.04434 18.2519C4.07431 18.6187 4.12669 18.9662 4.22819 19.2982L7.40213 17.3357C7.86714 17.0481 7.92322 17.026 7.96205 17.016C8.02726 16.9993 8.0952 16.9958 8.16178 17.006C8.20141 17.012 8.25943 17.0283 8.75103 17.2676L9.27939 17.5247L9.36915 17.5685C9.74357 17.7517 10.1199 17.9357 10.528 17.9895C10.8839 18.0364 11.2458 18.0061 11.589 17.9006C11.9825 17.7797 12.3229 17.5356 12.6617 17.2927L12.7429 17.2346L15.2485 15.4455C15.7951 15.0553 15.8645 15.0246 15.91 15.0125C15.9875 14.9918 16.0688 14.9901 16.1471 15.0075C16.1931 15.0177 16.2638 15.0454 16.8264 15.412L19.9922 17.475C20.0002 17.1067 20.0001 16.6965 20.0001 16.2414L20.0001 15.093Z" fill="black"/>
<path d="M12.0001 11C12.0001 12.1046 11.1047 13 10.0001 13C8.89557 13 8.00014 12.1046 8.00014 11C8.00014 9.89543 8.89557 9 10.0001 9C11.1047 9 12.0001 9.89543 12.0001 11Z" fill="black"/>
<path fill-rule="evenodd" clip-rule="evenodd" d="M14.6911 2.11058C14.2284 1.9995 13.7487 1.99973 13.1137 2.00003L9.7587 2.00006C8.95373 2.00005 8.28937 2.00004 7.74818 2.04426C7.18608 2.09018 6.66937 2.18875 6.18404 2.43604C5.43139 2.81953 4.81947 3.43145 4.43598 4.1841C4.18868 4.66944 4.09012 5.18614 4.04419 5.74824C3.99998 6.28943 3.99999 6.95378 4 7.75875V16.2414C3.99999 17.0463 3.99998 17.7107 4.04419 18.2519C4.09012 18.814 4.18868 19.3307 4.43598 19.816C4.81947 20.5687 5.43139 21.1806 6.18404 21.5641C6.66937 21.8114 7.18608 21.9099 7.74818 21.9559C8.28937 22.0001 8.95372 22.0001 9.75868 22.0001H14.2413C15.0463 22.0001 15.7106 22.0001 16.2518 21.9559C16.8139 21.9099 17.3306 21.8114 17.816 21.5641C18.5686 21.1806 19.1805 20.5687 19.564 19.816C19.8113 19.3307 19.9099 18.814 19.9558 18.2519C20 17.7107 20 17.0463 20 16.2414L20 8.8864C20.0003 8.25142 20.0006 7.77161 19.8895 7.30892C19.7915 6.90078 19.6299 6.5106 19.4106 6.15271C19.1619 5.74699 18.8225 5.40789 18.3733 4.95909L17.041 3.62678C16.5922 3.17756 16.2531 2.83813 15.8474 2.5895C15.4895 2.37019 15.0993 2.20857 14.6911 2.11058ZM13 4.00006H9.8C8.94342 4.00006 8.36113 4.00084 7.91104 4.03761C7.47262 4.07343 7.24842 4.13836 7.09202 4.21805C6.7157 4.4098 6.40973 4.71576 6.21799 5.09208C6.1383 5.24848 6.07337 5.47269 6.03755 5.9111C6.00078 6.36119 6 6.94348 6 7.80006V16.2001C6 17.0566 6.00078 17.6389 6.03755 18.089C6.07337 18.5274 6.1383 18.7516 6.21799 18.908C6.40973 19.2844 6.7157 19.5903 7.09202 19.7821C7.24842 19.8618 7.47262 19.9267 7.91104 19.9625C8.36113 19.9993 8.94342 20.0001 9.8 20.0001H14.2C15.0566 20.0001 15.6389 19.9993 16.089 19.9625C16.5274 19.9267 16.7516 19.8618 16.908 19.7821C17.2843 19.5903 17.5903 19.2844 17.782 18.908C17.8617 18.7516 17.9266 18.5274 17.9624 18.089C17.9992 17.6389 18 17.0566 18 16.2001V9.00006H16C14.3431 9.00006 13 7.65692 13 6.00006V4.00006ZM17.56 7.00006C17.4398 6.85796 17.2479 6.66216 16.887 6.30128L15.6988 5.11306C15.3379 4.75218 15.1421 4.56026 15 4.44009V6.00006C15 6.55235 15.4477 7.00006 16 7.00006H17.56Z" fill="black"/>
</svg>
