<svg width="24" height="24" viewBox="0 0 24 24" fill="none" xmlns="http://www.w3.org/2000/svg">
<path d="M4.7748 14.6584L3.05908 19.6737C2.79023 20.4596 3.54115 21.2117 4.32744 20.9441L9.34938 19.2349C9.78406 19.0869 10.179 18.8412 10.5037 18.5166L10.6564 18.3639C10.8517 18.1687 10.8518 17.8521 10.6565 17.6568L6.35359 13.3537C6.15835 13.1584 5.84182 13.1584 5.64654 13.3536L5.49239 13.5077C5.1685 13.8314 4.92303 14.2251 4.7748 14.6584Z" fill="black"/>
<path d="M12.8349 6.83438C12.6391 6.63855 12.3214 6.63919 12.1263 6.83581L7.85058 11.1463C7.65667 11.3418 7.65731 11.6573 7.852 11.852L12.1549 16.1551C12.3507 16.3509 12.6684 16.3503 12.8635 16.1537L17.1392 11.8432C17.3331 11.6477 17.3325 11.3322 17.1378 11.1375L12.8349 6.83438Z" fill="black"/>
<path d="M15.1186 3.88132L14.3535 4.64648C14.1582 4.84174 14.1582 5.15831 14.3535 5.35357L18.6564 9.65668C18.8516 9.85195 19.1682 9.85195 19.3635 9.65667L20.1288 8.8913C21.3003 7.71973 21.3003 5.82034 20.1288 4.64879L19.3613 3.88129C18.1897 2.70964 16.2901 2.70966 15.1186 3.88132Z" fill="black"/>
</svg>
