<svg width="24" height="24" viewBox="0 0 24 24" fill="none" xmlns="http://www.w3.org/2000/svg">
<path fill-rule="evenodd" clip-rule="evenodd" d="M5.18567 3.01263C3.9418 2.89955 2.89973 3.94162 3.01281 5.18549L3.69386 12.6771C3.91828 15.1456 5.63755 17.222 8.0209 17.903L11.476 18.8902L12.7087 20.1229C13.8803 21.2944 15.7798 21.2944 16.9514 20.1229L20.1229 16.9513C21.2945 15.7797 21.2945 13.8802 20.1229 12.7087L18.8904 11.4762L17.9032 8.02072C17.2222 5.63737 15.1458 3.91809 12.6772 3.69368L5.18567 3.01263ZM18 13.4142L13.4142 17.9999L14.1229 18.7087C14.5135 19.0992 15.1466 19.0992 15.5371 18.7087L18.7087 15.5371C19.0992 15.1466 19.0992 14.5134 18.7087 14.1229L18 13.4142ZM5.0046 5.00442L12.4962 5.68547C14.1419 5.83508 15.5262 6.98126 15.9801 8.57016L16.8769 11.7088L11.709 16.8767L8.57034 15.9799C6.98144 15.526 5.83526 14.1417 5.68565 12.496L5.0046 5.00442Z" fill="black"/>
<path d="M3.59006 3.58994C3.13189 4.04797 3.35361 4.7679 3.81171 5.226L9.06776 10.482C9.02357 10.6473 9.00001 10.8209 9.00001 11.0001C9.00001 12.1047 9.89545 13.0001 11 13.0001C12.1046 13.0001 13 12.1047 13 11.0001C13 9.89552 12.1046 9.00009 11 9.00009C10.8209 9.00009 10.6472 9.02365 10.482 9.06784L5.22589 3.81175C4.76788 3.35375 4.04814 3.132 3.59006 3.58994Z" fill="black"/>
</svg>
