<svg width="24" height="24" viewBox="0 0 24 24" fill="none" xmlns="http://www.w3.org/2000/svg">
<path d="M14 6C13.4477 6 13 6.44772 13 7C13 7.55228 13.4477 8 14 8H20C20.5523 8 21 7.55228 21 7C21 6.44772 20.5523 6 20 6H14Z" fill="black"/>
<path d="M14 16C13.4477 16 13 16.4477 13 17C13 17.5523 13.4477 18 14 18H20C20.5523 18 21 17.5523 21 17C21 16.4477 20.5523 16 20 16H14Z" fill="black"/>
<path d="M9.0483 3.72727V11H7.07386V5.54545H7.03125L5.44034 6.49716V4.82102L7.23011 3.72727H9.0483Z" fill="black"/>
<path d="M5.48295 21V19.5795L8.19602 17.3352C8.37595 17.1861 8.52983 17.0464 8.65767 16.9162C8.78788 16.7836 8.88731 16.6475 8.95597 16.5078C9.02699 16.3681 9.0625 16.2131 9.0625 16.0426C9.0625 15.8556 9.02225 15.6958 8.94176 15.5632C8.86364 15.4306 8.75473 15.3288 8.61506 15.2578C8.47538 15.1844 8.31439 15.1477 8.1321 15.1477C7.94981 15.1477 7.78883 15.1844 7.64915 15.2578C7.51184 15.3312 7.4053 15.4389 7.32955 15.581C7.25379 15.723 7.21591 15.8958 7.21591 16.0994H5.34091C5.34091 15.5881 5.45573 15.1477 5.68537 14.7784C5.91501 14.4091 6.23935 14.125 6.65838 13.9261C7.07741 13.7273 7.56866 13.6278 8.1321 13.6278C8.71449 13.6278 9.21875 13.7214 9.64489 13.9084C10.0734 14.093 10.4036 14.3535 10.6357 14.6896C10.87 15.0258 10.9872 15.42 10.9872 15.8722C10.9872 16.1515 10.9292 16.4297 10.8132 16.7067C10.6972 16.9813 10.4889 17.2855 10.1882 17.6193C9.88755 17.9531 9.46023 18.3509 8.90625 18.8125L8.22443 19.3807V19.4233H11.0653V21H5.48295Z" fill="black"/>
</svg>
